<?xml version="1.0" encoding="UTF-8" standalone="no"?>
<!-- Created with Inkscape (http://www.inkscape.org/) -->

<svg
   xmlns:dc="http://purl.org/dc/elements/1.1/"
   xmlns:cc="http://creativecommons.org/ns#"
   xmlns:rdf="http://www.w3.org/1999/02/22-rdf-syntax-ns#"
   xmlns:svg="http://www.w3.org/2000/svg"
   xmlns="http://www.w3.org/2000/svg"
   version="1.1"
   width="100%"
   height="100%"
   viewBox="0 0 1623 1623"
   id="svg2">
  <defs
     id="defs4" />
  <metadata
     id="metadata7">
    <rdf:RDF>
      <cc:Work
         rdf:about="">
        <dc:format>image/svg+xml</dc:format>
        <dc:type
           rdf:resource="http://purl.org/dc/dcmitype/StillImage" />
        <dc:title></dc:title>
      </cc:Work>
    </rdf:RDF>
  </metadata>
  <g
     transform="translate(475.31257,653.01442)"
     id="layer1">
    <path
       d="m 329.19509,968.02951 c -2.2515,-1.05171 -5.568,-3.66821 -7.3699,-5.81451 -2.3884,-2.8448 -78.4098,-146.41269 -80.2671,-151.58569 -0.1481,-0.4128 -5.6755,-1.6324 -12.283,-2.7104 -177.523404,-28.9621 -335.7061,-129.8094 -437.6829,-279.0392 -53.9251,-78.9124 -89.1504,-166.457 -105.2774,-261.64359 -1.3647,-8.0549 -2.6038,-14.7261 -2.7535,-14.825 -0.1498,-0.099 -33.3473,-17.4088 -73.7723,-38.4665 -40.425,-21.0577 -74.7775,-39.196 -76.3389,-40.3072 -1.5614,-1.1113 -4.1489,-3.8289 -5.75,-6.0392 -5.7007,-7.86949 -3.1324,-18.15239 6.1922,-24.79199 1.8046,-1.2851 35.9221,-19.3567 75.8166,-40.1592 39.8945,-20.802496 72.9136,-38.200796 73.3757,-38.662896 0.4621,-0.4621 2.144,-8.4372 3.7375,-17.7223 32.7815,-191.012084 148.8346,-358.036484 317.4668955,-456.900084 64.7098005,-37.9373 140.1964045,-65.7394 214.5000045,-79.0018 7.975,-1.4234 16.2792,-2.9114 18.4538,-3.3066 l 3.9537,-0.7186 38.8529,-74.4775 c 40.7943,-78.1989 42.7905,-81.5192 50.5515,-84.0805 7.546,-2.4904 15.2874,0.969 20.9968,9.3829 1.5749,2.321 19.8968,36.8918 40.7154,76.824 l 37.8519,72.6039 16.062,2.7128 c 178.909,30.2167 338.0298,134.1939 438.9192,286.8111 41.0544,62.10369 71.0719,130.315674 89.0922,202.4537838 3.9029,15.6238002 9.7698,44.2930002 11.6441,56.9003002 l 1.2022,8.0858 74.60211,38.914196 c 59.9783,31.2861 75.5149,39.7963 79.2589,43.4142 8.5081,8.2216 8.4958,16.7954 -0.036,24.99999 -3.755,3.611 -19.4128,12.1697 -79.2612,43.3249 l -74.58181,38.8249 -2.2251,13.6751 c -17.9856,110.53699 -65.9614,216.89879 -138.1042,306.17509 -27.5127,34.0469 -65.611,71.8276 -100.5899,99.7515 -87.5935,69.9263 -191.5149,116.4154 -301.2292,134.7544 -7.9039,1.3211 -14.5405,2.5719 -14.7481,2.7794 -0.2075,0.2076 -17.7301,33.6335 -38.939,74.2799 -21.2089,40.6464 -39.6501,75.32959 -40.9806,77.07379 -5.4919,7.20031 -13.968,9.82121 -21.0556,6.51081 z m 32.0939,-240.5978 c 82.4633,-2.242 172.3904,-27.2361 247.9532,-68.9153 142.0152,-78.3334 243.3874,-210.9785 280.9614,-367.63669 10.8052,-45.0507 15.1263,-83.7901 15.0022,-134.49999 -0.086,-35.2226 -1.1812,-51.3807 -5.4896,-80.999996 -14.1933,-97.5745 -53.7857,-189.941514 -115.1432,-268.622884 -28.7691,-36.892 -67.723,-75.1026 -105.8834,-103.8631 -79.8754,-60.2 -173.3052,-98.0786 -272.4006,-110.4376 -44.3808,-5.535 -96.2812,-5.5375 -141.5001,-0.01 -142.4765,17.4266 -274.792404,89.7715 -367.2846,200.8163 -29.155,35.0031 -51.7811,69.78029 -72.6162,111.614014 -33.6316,67.52711 -52.5208,136.94981 -58.1536,213.730406 -1.581,21.5505 -0.7121,78.66109 1.4951,98.26959 8.1508,72.411 26.9109,136.33885 58.1047,198.00005 95.510796,188.7974 287.1696,309.5025 497.4546,313.2927 6.325,0.114 13.075,0.1102 15,-0.01 1.925,-0.1187 12.0501,-0.4482 22.5001,-0.7323 z"
       id="path2910-1"
       style="fill:#ffffff;fill-opacity:1;stroke:none" />
    <path
       d="m 304.55849,613.3986 c -64.0709,-5.377 -116.5788,-19.562 -170.0951,-45.9512 -132.8483045,-65.508 -226.130304,-191.7858 -248.9055,-336.94839 -4.4152,-28.1412 -5.7979,-49.6879 -5.1932,-80.92849 0.9716,-50.206196 7.7076,-89.801896 23.136096,-135.999996 29.103,-87.14421 84.2455,-163.703274 158.0578,-219.445474 152.734104,-115.3429 363.922604,-122.3898 523.500004,-17.468 68.9532,45.3367 122.8332,105.97406 158.9751,178.913464 5.9956,12.10001 13.0115,27.40001 15.5908,34.00001 35.7962,91.5956 41.8336,189.873586 17.4465,283.999986 -12.2146,47.1445 -32.3977,92.84899 -58.7328,132.99999 -78.8113,120.1572 -205.3393,195.3032 -347.6749,206.4868 -11.7364,0.9221 -56.4338,1.1529 -66.1048,0.3413 z m 70.5,-24.4078 c 136.0555,-12.1442 261.1993,-90.6873 331.2824,-207.9203 32.4914,-54.35059 51.3066,-110.12339 59.3745,-175.99999 2.5003,-20.4155 2.5191,-72.34239 0.034,-93.19939 -6.1136,-51.305296 -18.9587,-96.238996 -40.1072,-140.300596 -46.601,-97.090074 -128.6364,-173.980374 -228.5834,-214.246874 -101.985,-41.0876 -218.0876,-41.4716 -320,-1.0585 -87.911804,34.8611 -163.270204,98.7838 -211.972804,179.805364 -79.123996,131.63061 -82.055196,297.937396 -7.606,431.544686 28.2007,50.6093 66.7219,95.6201 113.0789,132.1294 23.9795,18.8855 57.196504,39.0172 85.570004,51.8612 69.2953,31.3683 143.8005,44.091 218.9299,37.385 z"
       id="path2910-9"
       style="fill:#ffffff;fill-opacity:1;stroke:none" />
    <path
       d="m 158.28859,373.69392 c -2.4517,-1.1418 -10.4455,-8.3911 -20.6515,-18.728 -17.0356,-17.2542 -18.8697,-19.92109 -18.821,-27.36519 0.047,-7.1904 2.6949,-10.1288 68.2531,-75.745 l 64.1883,-64.2449 -32.1259,-32.25509 c -17.6692,-17.7402 -32.8368,-33.6703 -33.7058,-35.4 -3.0806,-6.132 -3.1457,-10.8114 -0.2307,-16.5889 1.4613,-2.8964 3.9016,-6.237396 5.4229,-7.424596 1.5213,-1.1872 22.5445,-11.0251 46.7183,-21.8621 217.8995,-97.6831 293.72,-131.35151 298.2293,-132.42991 12.7131,-3.0402 19.7411,3.6938 17.0569,16.3433 -0.596,2.80901 -26.9644,62.93221 -58.5965,133.60721 -31.6321,70.674986 -65.6634,146.724986 -75.6251,168.999986 -15.227,34.0482 -18.7585,41.1504 -22.1685,44.5825 -5.4913,5.5269 -11.1375,6.9879 -18.5693,4.805 -5.0697,-1.4892 -7.232,-3.4288 -38.1328,-34.2071 l -32.7583,-32.6285 -65.2417,65.1372 c -55.98,55.89029 -65.8095,65.29059 -69.2417,66.21839 -5.6894,1.538 -9.4142,1.3214 -14,-0.8143 z"
       id="path2910-95"
       style="fill:#ffffff;fill-opacity:1;stroke:none" />
  </g>
</svg>
