<?xml version="1.0" encoding="utf-8"?>

<!-- License Agreement at http://iconmonstr.com/license/ -->

<!DOCTYPE svg PUBLIC "-//W3C//DTD SVG 1.1//EN" "http://www.w3.org/Graphics/SVG/1.1/DTD/svg11.dtd">
<svg version="1.1" xmlns="http://www.w3.org/2000/svg" xmlns:xlink="http://www.w3.org/1999/xlink" x="0px" y="0px"
	 width="512px" height="512px" viewBox="0 0 512 512" style="enable-background:new 0 0 512 512;" xml:space="preserve">
<path id="anchor-3-icon" d="M351.604,335.376l28.787,16.621c-28.083,38.277-64.824,62.301-104.362,68.397V275.171h48.306v-40
	h-48.306v-3.829v-0.188c0-54.82,48.786-60.084,48.786-112.339C324.814,80.869,293.944,50,256,50
	c-37.943,0-68.814,30.869-68.814,68.814c0,52.694,48.786,57.052,48.786,112.338v0.189v3.829h-48.306v40h48.306v145.224
	c-39.538-6.097-76.278-30.12-104.363-68.397l28.788-16.621l-90.66-52.343v104.686l27.018-15.6C137.32,429.445,194.595,462,256,462
	s118.68-32.555,159.246-89.881l27.018,15.6V283.033L351.604,335.376z M227.242,118.814c0-15.857,12.9-28.758,28.758-28.758
	c15.856,0,28.758,12.9,28.758,28.758c0,15.856-12.901,28.757-28.758,28.757C240.143,147.571,227.242,134.671,227.242,118.814z"/>
</svg>
