<?xml version="1.0" encoding="utf-8"?>

<!-- License Agreement at http://iconmonstr.com/license/ -->

<!DOCTYPE svg PUBLIC "-//W3C//DTD SVG 1.1//EN" "http://www.w3.org/Graphics/SVG/1.1/DTD/svg11.dtd">
<svg version="1.1" xmlns="http://www.w3.org/2000/svg" xmlns:xlink="http://www.w3.org/1999/xlink" x="0px" y="0px"
	 width="512px" height="512px" viewBox="0 0 512 512" enable-background="new 0 0 512 512" xml:space="preserve">
<path id="wrench-4-icon" d="M379.439,298.354c-0.001,0-0.002,0-0.002,0c-12.428,0-24.341-4.936-33.128-13.723L247.678,186
	c-10.183-10.182-15.498-24.294-14.551-38.663c1.673-25.336-7.169-51.235-26.533-70.601c-25.551-25.549-62.471-32.784-94.469-21.72
	l58.094,58.095c1.334,22.664-33.709,57.706-56.373,56.372L55.754,111.39c-11.066,31.998-3.83,68.92,21.719,94.469
	c19.364,19.365,45.263,28.207,70.6,26.534c14.383-0.949,28.473,4.358,38.664,14.55l96.243,96.242
	c9.527,9.527,14.811,22.503,14.644,35.976c-0.004,0.339-0.006,0.678-0.006,1.018c0,45.189,36.633,81.822,81.822,81.822
	s81.824-36.633,81.824-81.822C461.264,334.987,424.629,298.354,379.439,298.354z M391.426,425.119l-44.727-11.985l-11.988-44.728
	l32.744-32.742l44.729,11.984l11.984,44.728L391.426,425.119z"/>
</svg>
