<?xml version="1.0" encoding="utf-8"?>

<!-- License Agreement at http://iconmonstr.com/license/ -->

<!DOCTYPE svg PUBLIC "-//W3C//DTD SVG 1.1//EN" "http://www.w3.org/Graphics/SVG/1.1/DTD/svg11.dtd">
<svg version="1.1" xmlns="http://www.w3.org/2000/svg" xmlns:xlink="http://www.w3.org/1999/xlink" x="0px" y="0px"
	 width="512px" height="512px" viewBox="0 0 512 512" enable-background="new 0 0 512 512" xml:space="preserve">
<path id="brightness-icon" d="M255.5,156c-55.141,0-100,44.859-100,99.999c0,55.142,44.859,100.001,100,100.001
	s100-44.859,100-100.001C355.5,200.859,310.641,156,255.5,156z M150.779,179.064l-54.586-54.588l28.285-28.283l54.664,54.664
	C168.305,158.75,158.73,168.271,150.779,179.064z M332.436,151.279l55.086-55.086l28.285,28.283l-55.164,55.166
	C352.75,168.805,343.229,159.229,332.436,151.279z M127.039,276H50v-40.001h77.039c-1.012,6.521-1.539,13.201-1.539,20
	C125.5,262.801,126.027,269.48,127.039,276z M236,127.463V50h40v77.621c-6.68-1.062-13.525-1.621-20.5-1.621
	C248.873,126,242.362,126.502,236,127.463z M179.143,361.143l-54.664,54.664l-28.285-28.285l54.586-54.584
	C158.729,343.729,168.305,353.252,179.143,361.143z M462,235.999V276h-78.039c1.012-6.52,1.539-13.199,1.539-20.001
	c0-6.799-0.527-13.479-1.539-20H462z M276,384.379V462h-40v-77.463c6.362,0.963,12.873,1.463,19.5,1.463
	C262.475,386,269.32,385.441,276,384.379z M360.643,332.357l55.164,55.164l-28.285,28.285l-55.086-55.086
	C343.229,352.771,352.752,343.195,360.643,332.357z"/>
</svg>
