<?xml version="1.0" encoding="utf-8"?>

<!-- The icon can be used freely in both personal and commercial projects with no attribution required, but always appreciated. 
You may NOT sub-license, resell, rent, redistribute or otherwise transfer the icon without express written permission from iconmonstr.com -->

<!DOCTYPE svg PUBLIC "-//W3C//DTD SVG 1.1//EN" "http://www.w3.org/Graphics/SVG/1.1/DTD/svg11.dtd">
<svg version="1.1" xmlns="http://www.w3.org/2000/svg" xmlns:xlink="http://www.w3.org/1999/xlink" x="0px" y="0px"
	 width="512px" height="512px" viewBox="0 0 512 512" enable-background="new 0 0 512 512" xml:space="preserve">
<path id="radio-tower-icon" d="M401.727,50.002c37.08,37.08,60.014,88.305,60.014,144.888c0,56.582-22.934,107.808-60.014,144.888
	l-29.992-29.992c29.404-29.404,47.59-70.026,47.59-114.896c0-44.87-18.186-85.491-47.59-114.896L401.727,50.002z M314.703,137.027
	c14.809,14.809,23.967,35.266,23.967,57.863c0,22.597-9.158,43.055-23.967,57.863l30.252,30.253
	c22.551-22.551,36.5-53.705,36.5-88.116c0-34.411-13.949-65.564-36.5-88.115L314.703,137.027z M301.428,194.889
	c0-25.088-20.337-45.43-45.429-45.43c-25.09,0-45.426,20.342-45.426,45.43c0,13.96,6.301,26.443,16.212,34.773
	c5.347,4.494,8.43,11.124,8.43,18.109V462h42V247.411c0-6.911,3.029-13.495,8.283-17.984
	C295.246,221.097,301.428,208.717,301.428,194.889z M140.267,309.783c-29.404-29.404-47.591-70.026-47.591-114.896
	c0-44.869,18.187-85.491,47.591-114.895L110.274,50C73.194,87.08,50.26,138.306,50.26,194.888
	c0,56.583,22.935,107.808,60.015,144.888L140.267,309.783z M167.045,283.004c-22.551-22.551-36.499-53.705-36.499-88.116
	s13.948-65.565,36.499-88.116l30.252,30.252c-14.809,14.809-23.968,35.266-23.968,57.863c0,22.597,9.16,43.054,23.968,57.863
	L167.045,283.004z"/>
</svg>
