<?xml version="1.0" encoding="UTF-8" standalone="no"?>
<!-- Created with Inkscape (http://www.inkscape.org/) -->

<svg
   xmlns:dc="http://purl.org/dc/elements/1.1/"
   xmlns:cc="http://creativecommons.org/ns#"
   xmlns:rdf="http://www.w3.org/1999/02/22-rdf-syntax-ns#"
   xmlns:svg="http://www.w3.org/2000/svg"
   xmlns="http://www.w3.org/2000/svg"
   xmlns:sodipodi="http://sodipodi.sourceforge.net/DTD/sodipodi-0.dtd"
   xmlns:inkscape="http://www.inkscape.org/namespaces/inkscape"
   width="512"
   height="512"
   id="svg2"
   version="1.1"
   inkscape:version="0.48.4 r9939"
   sodipodi:docname="Neues Dokument 1">
  <defs
     id="defs4" />
  <sodipodi:namedview
     id="base"
     pagecolor="#ffffff"
     bordercolor="#666666"
     borderopacity="1.0"
     inkscape:pageopacity="0.0"
     inkscape:pageshadow="2"
     inkscape:zoom="0.49497475"
     inkscape:cx="-17.142857"
     inkscape:cy="358.37559"
     inkscape:document-units="px"
     inkscape:current-layer="layer1"
     showgrid="false"
     inkscape:window-width="1916"
     inkscape:window-height="1168"
     inkscape:window-x="0"
     inkscape:window-y="0"
     inkscape:window-maximized="0" />
  <metadata
     id="metadata7">
    <rdf:RDF>
      <cc:Work
         rdf:about="">
        <dc:format>image/svg+xml</dc:format>
        <dc:type
           rdf:resource="http://purl.org/dc/dcmitype/StillImage" />
        <dc:title></dc:title>
      </cc:Work>
    </rdf:RDF>
  </metadata>
  <g
     inkscape:label="Ebene 1"
     inkscape:groupmode="layer"
     id="layer1"
     transform="translate(0,-540.36218)">
    <path
       style="fill:#000000"
       d="m 53.726502,999.011 -2.600944,-0.3778 0,-14.33912 0,-14.33929 3.401235,0.35769 c 9.410156,0.98957 12.094556,1.04412 19.543981,0.39704 13.435907,-1.16706 24.593305,-4.571 34.557436,-10.54313 2.796,-1.6758 5.2466,-3.04691 5.4458,-3.04691 0.19921,0 2.71037,1.41633 5.58038,3.14725 23.42317,14.12726 60.84193,14.13447 83.37257,0.0154 2.77641,-1.73978 5.35118,-3.16323 5.72168,-3.16323 0.37051,0 2.50415,1.23181 4.74143,2.73733 10.14259,6.82556 26.06345,10.91246 42.50994,10.91246 16.44648,0 32.36733,-4.0869 42.50993,-10.91246 2.23727,-1.50552 4.37092,-2.73733 4.74142,-2.73733 0.37051,0 2.94527,1.42345 5.72168,3.16323 22.53064,14.1184 59.9494,14.11119 83.37257,-0.0154 2.87002,-1.73092 5.38117,-3.14725 5.58038,-3.14725 0.19921,0 2.64982,1.37111 5.4458,3.04691 15.66042,9.38617 37.66919,13.12643 54.9017,9.33047 l 2.60095,-0.573 0,14.07424 0,14.0742 -3.40123,1.0166 c -5.03078,1.5036 -22.00477,1.2422 -30.19841,-0.465 -8.55823,-1.7833 -17.40311,-5.1766 -24.23906,-9.29969 l -5.31401,-3.20498 -4.85271,3.13658 c -12.84885,8.30449 -34.13417,12.62369 -52.11248,10.57469 -12.82104,-1.4614 -27.46148,-6.5508 -35.10931,-12.20508 l -2.16735,-1.60249 -5.13317,3.21662 c -5.99698,3.75795 -13.5239,6.72225 -23.0972,9.09625 -9.77489,2.424 -28.72412,2.424 -38.49901,0 -9.5733,-2.374 -17.10021,-5.3383 -23.0972,-9.09625 l -5.13318,-3.21662 -2.16734,1.60249 c -7.64784,5.65428 -22.28827,10.74368 -35.10931,12.20508 -18.0161,2.0534 -39.26265,-2.2696 -52.17634,-10.61606 l -4.91657,-3.17775 -4.50268,3.14456 c -11.728398,8.19065 -20.212465,10.52495 -39.715488,10.92715 -7.48272,0.1543 -14.775369,0.1104 -16.20589,-0.097 z m 0,-47.21474 -2.600944,-0.38014 0,-14.4436 0,-14.4436 2.857754,0.53613 c 3.769582,0.70717 19.737272,0.73857 24.775007,0.0488 10.362997,-1.41909 25.297501,-6.83843 33.278041,-12.07572 2.04423,-1.34155 2.19137,-1.30846 6.80247,1.52944 9.62075,5.92112 22.5678,9.89369 35.30186,10.83174 4.05922,0.29903 7.12033,0.3011 6.80247,0.005 -0.31784,-0.29672 -3.81908,-1.86701 -7.78053,-3.48975 -10.38109,-4.25204 -30.89705,-14.8749 -38.81409,-20.09695 -14.34142,-9.45953 -23.587565,-18.64072 -28.528937,-28.32853 -2.015917,-3.95229 -2.27529,-5.38352 -2.540978,-14.02113 -0.267442,-8.69481 -0.14142,-9.81031 1.311003,-11.60421 l 1.606889,-1.98468 76.510463,-0.40015 76.51047,-0.40014 -69.437,-23.10728 C 131.5901,807.26206 100.10087,796.6382 99.804381,796.36248 c -0.296484,-0.27571 4.014679,-4.1026 9.580359,-8.5042 11.27481,-8.91664 34.61826,-31.70254 45.18234,-44.10317 34.55002,-40.55646 61.25641,-86.21947 80.68884,-137.96299 l 4.65855,-12.4045 0.0399,125.04543 0.0398,125.04544 70.62567,-0.0727 70.62566,-0.0728 -62.00161,-15.57866 C 285.143,819.18608 257.14473,812.07814 257.0255,811.9589 c -0.11923,-0.11924 1.74415,-3.19736 4.14084,-6.84029 20.15143,-30.62964 26.41482,-85.45734 16.9195,-148.10781 -1.10073,-7.26264 -2.88918,-17.52622 -3.97431,-22.80797 -1.08513,-5.28174 -1.86923,-9.7069 -1.74245,-9.8337 0.41226,-0.41226 19.08694,22.34449 27.77154,33.84212 24.85729,32.90875 45.15065,67.0557 58.61452,98.62872 12.72252,29.83451 20.76428,58.38388 22.58073,80.16473 l 0.52879,6.34056 21.29827,0.30819 c 11.71405,0.1695 21.93851,0.60199 22.72101,0.9611 4.59836,2.11021 3.07614,6.63177 -5.1494,15.29569 -20.47621,21.56747 -53.81034,43.91761 -86.5528,58.03265 -7.05366,3.04079 -6.92047,3.29722 2.49718,4.80784 18.75068,3.00768 41.8421,-1.13813 56.4051,-10.12692 4.6896,-2.89459 4.83407,-2.92788 6.87962,-1.58547 4.69545,3.08142 16.89901,8.38213 22.97161,9.97787 10.9545,2.87861 25.72848,3.40951 35.33823,1.26988 l 2.60096,-0.5791 0,14.07427 0,14.07428 -3.40124,1.00473 c -4.94223,1.45995 -22.76528,1.15896 -30.61112,-0.51697 -8.26577,-1.76561 -17.14743,-5.20765 -23.81643,-9.22991 l -5.30408,-3.19905 -5.11915,3.20969 c -11.36976,7.12882 -25.25651,10.62676 -42.18811,10.62676 -17.0352,0 -29.42003,-3.15685 -41.88934,-10.67745 l -5.37048,-3.23908 -2.17947,1.54457 c -12.95011,9.1776 -34.98695,14.17936 -53.79509,12.21004 -13.60549,-1.42458 -27.67162,-6.16967 -36.19494,-12.21004 l -2.17949,-1.54457 -5.37046,3.23908 c -12.46931,7.5206 -24.85414,10.67745 -41.88935,10.67745 -16.9655,0 -30.81656,-3.49681 -42.25216,-10.66692 l -5.1832,-3.24984 -4.66458,3.272 c -11.129649,7.80702 -20.620865,10.39723 -39.533361,10.78891 -7.48272,0.15498 -14.775369,0.1107 -16.205889,-0.0984 z"
       id="path3050"
       inkscape:connector-curvature="0" />
  </g>
</svg>
